<svg width="2436" height="667" viewBox="0 0 2436 667" fill="none" xmlns="http://www.w3.org/2000/svg">
<path d="M432.081 416C510.347 561.655 399.47 636.69 334.248 656C351.777 630.759 332.72 604.448 321 594.448C404.158 555.552 396.073 487.207 381.636 457.897L432.081 416Z" fill="#0C513E"/>
<path d="M373 184.5C373 251.05 320.617 305 256 305C191.383 305 139 251.05 139 184.5C139 117.95 191.383 64 256 64C320.617 64 373 117.95 373 184.5ZM178.022 184.5C178.022 228.855 212.934 264.811 256 264.811C299.066 264.811 333.978 228.855 333.978 184.5C333.978 140.145 299.066 104.189 256 104.189C212.934 104.189 178.022 140.145 178.022 184.5Z" fill="url(#paint0_linear_1283_10137)"/>
<path d="M354.928 79.1646C247.773 71.6158 154.244 113.338 120.874 135.143C135.858 30.3044 206.143 5.33974 239.413 5.96219C305.566 5.20287 343.987 54.4474 354.928 79.1646Z" fill="url(#paint1_linear_1283_10137)"/>
<path d="M484.381 88.9542C517.024 90.6749 555.714 97.7299 449.334 112.184C385.485 118.365 264.144 135.123 172.56 161.36C139.203 170.917 109.794 181.73 88.548 193.748C44.5665 213.365 -31.8513 243.926 14.3293 209.236C50.0145 170.099 90.3546 141.256 132.358 120.404C207.1 83.2997 287.109 71.4962 355.53 72.0163C407.713 72.4131 453.155 79.978 484.381 88.9542Z" fill="url(#paint2_linear_1283_10137)"/>
<path d="M14.3293 209.236C-31.8513 243.926 44.5665 213.365 88.548 193.748C109.794 181.73 139.203 170.917 172.56 161.36C264.144 135.123 385.485 118.365 449.334 112.184C555.714 97.7299 517.024 90.6749 484.381 88.9542M14.3293 209.236C50.0145 170.099 90.3546 141.256 132.358 120.404C207.1 83.2997 287.109 71.4962 355.53 72.0163C407.713 72.4131 453.155 79.978 484.381 88.9542M14.3293 209.236C44.6956 189.694 100.336 161.53 172.56 137.332C258.063 108.685 366.81 85.596 484.381 88.9542" stroke="#0C523F"/>
<path d="M430.995 215.581C442.313 243.721 441.285 316.884 441.285 322C504.253 260.605 462.034 179.085 433.053 146C352.798 238.912 393.097 302.047 423.279 322C417.105 289.665 425.851 237.581 430.995 215.581Z" fill="url(#paint3_radial_1283_10137)"/>
<path d="M344 328.788C286.945 394.314 242.017 514.068 226.685 565.754C208.907 565.754 187.924 542.057 179.139 529.179L143.996 430.271C87.7674 542.367 181.206 594.431 234.954 606.451H287.668C326.532 629.117 303.861 651.268 287.668 659.51C270.717 669.401 231.681 667.409 214.282 665.177C234.437 668.268 49.9378 650.238 53.0387 493.119C55.5193 367.424 147.786 324.667 193.61 319L254.076 386.999L311.958 319L344 328.788Z" fill="url(#paint4_linear_1283_10137)"/>
<path d="M302.628 568H264C291.812 456.271 327.35 421.26 330.955 414.567C334.357 408.253 374.219 366.168 413.362 348.662C444.677 334.658 481.348 308.845 495.769 297.69C497.829 212.838 588.648 177.208 633.8 170C633.8 303.868 555.857 329.44 516.886 325.493C529.659 321.374 566.501 263.364 583.326 234.875C514.516 315.607 482.893 340.596 475.682 342.999C502.98 339.909 588.477 346.088 593.112 353.811C596.82 359.99 621.783 363.25 633.8 364.109C619.379 349.28 604.443 345.916 598.777 346.088C644.513 334.967 679.982 374.749 692 396.031C604.958 433.102 602.383 383.674 586.416 375.951C573.643 369.772 553.625 365.482 545.213 364.109C472.283 359.578 419.714 382.816 402.546 395.001C337.445 446.901 308.809 531.959 302.628 568Z" fill="url(#paint5_radial_1283_10137)"/>
<path d="M327.818 566.071C330.394 554.062 340.53 519.518 360.461 477.415C356.844 505.295 345.25 562.057 327.818 566.071Z" fill="url(#paint6_linear_1283_10137)"/>
<path d="M633 475.163C525.605 508.45 472.252 439.719 459 401.193C474.283 417.22 542.128 439.377 574.139 448.452C555.139 427.083 503.576 402.563 480.169 392.975C565.259 372.016 617.51 439.035 633 475.163Z" fill="url(#paint7_radial_1283_10137)"/>
<path d="M916.344 446L866.357 283.116H865.079C865.268 286.998 865.553 292.868 865.931 300.725C866.405 308.488 866.831 316.772 867.209 325.577C867.588 334.381 867.777 342.334 867.777 349.434V446H828.441V238.384H888.369L937.503 397.149H938.356L990.473 238.384H1050.4V446H1009.36V347.73C1009.36 341.198 1009.45 333.671 1009.64 325.151C1009.93 316.63 1010.26 308.536 1010.64 300.867C1011.02 293.104 1011.3 287.282 1011.49 283.4H1010.21L956.675 446H916.344ZM1128.16 287.235V446H1084.85V287.235H1128.16ZM1106.58 225.035C1113.02 225.035 1118.55 226.55 1123.19 229.579C1127.83 232.514 1130.15 238.052 1130.15 246.194C1130.15 254.241 1127.83 259.827 1123.19 262.951C1118.55 265.981 1113.02 267.495 1106.58 267.495C1100.05 267.495 1094.46 265.981 1089.82 262.951C1085.28 259.827 1083.01 254.241 1083.01 246.194C1083.01 238.052 1085.28 232.514 1089.82 229.579C1094.46 226.55 1100.05 225.035 1106.58 225.035ZM1209.48 448.84C1191.77 448.84 1177.34 441.929 1166.17 428.107C1155.09 414.19 1149.55 393.788 1149.55 366.901C1149.55 339.73 1155.18 319.186 1166.45 305.27C1177.72 291.258 1192.44 284.252 1210.61 284.252C1218.19 284.252 1224.86 285.294 1230.64 287.377C1236.41 289.459 1241.38 292.252 1245.55 295.755C1249.81 299.258 1253.41 303.187 1256.34 307.542H1257.76C1257.19 304.512 1256.48 300.063 1255.63 294.193C1254.87 288.229 1254.49 282.122 1254.49 275.874V225.035H1297.95V446H1264.72L1256.34 425.409H1254.49C1251.75 429.764 1248.29 433.74 1244.13 437.337C1240.06 440.84 1235.18 443.633 1229.5 445.716C1223.82 447.799 1217.15 448.84 1209.48 448.84ZM1224.67 414.332C1236.51 414.332 1244.84 410.829 1249.67 403.823C1254.59 396.723 1257.19 386.072 1257.48 371.872V367.185C1257.48 351.754 1255.11 339.967 1250.38 331.825C1245.64 323.589 1236.84 319.47 1223.96 319.47C1214.4 319.47 1206.92 323.589 1201.53 331.825C1196.13 340.062 1193.43 351.943 1193.43 367.469C1193.43 382.996 1196.13 394.688 1201.53 402.545C1207.02 410.403 1214.73 414.332 1224.67 414.332ZM1472.99 366.333C1472.99 379.587 1471.19 391.327 1467.59 401.551C1464.09 411.776 1458.93 420.438 1452.11 427.539C1445.39 434.545 1437.25 439.846 1427.69 443.444C1418.22 447.041 1407.52 448.84 1395.59 448.84C1384.42 448.84 1374.15 447.041 1364.78 443.444C1355.5 439.846 1347.41 434.545 1340.5 427.539C1333.68 420.438 1328.38 411.776 1324.59 401.551C1320.9 391.327 1319.05 379.587 1319.05 366.333C1319.05 348.724 1322.18 333.813 1328.42 321.601C1334.67 309.388 1343.57 300.11 1355.12 293.767C1366.67 287.424 1380.45 284.252 1396.45 284.252C1411.31 284.252 1424.47 287.424 1435.92 293.767C1447.47 300.11 1456.52 309.388 1463.05 321.601C1469.68 333.813 1472.99 348.724 1472.99 366.333ZM1363.22 366.333C1363.22 376.747 1364.35 385.504 1366.62 392.605C1368.9 399.705 1372.45 405.054 1377.28 408.652C1382.1 412.249 1388.4 414.048 1396.16 414.048C1403.83 414.048 1410.03 412.249 1414.77 408.652C1419.59 405.054 1423.1 399.705 1425.27 392.605C1427.55 385.504 1428.68 376.747 1428.68 366.333C1428.68 355.825 1427.55 347.115 1425.27 340.204C1423.1 333.198 1419.59 327.944 1414.77 324.441C1409.94 320.938 1403.64 319.186 1395.88 319.186C1384.42 319.186 1376.09 323.115 1370.88 330.973C1365.77 338.831 1363.22 350.618 1363.22 366.333ZM1582.85 284.252C1585.02 284.252 1587.53 284.394 1590.37 284.678C1593.31 284.868 1595.67 285.152 1597.47 285.53L1594.21 326.145C1592.79 325.671 1590.75 325.34 1588.1 325.151C1585.54 324.867 1583.32 324.725 1581.43 324.725C1575.84 324.725 1570.4 325.435 1565.1 326.855C1559.89 328.275 1555.2 330.594 1551.04 333.813C1546.87 336.937 1543.56 341.103 1541.1 346.31C1538.73 351.422 1537.55 357.718 1537.55 365.197V446H1494.23V287.235H1527.04L1533.43 313.932H1535.56C1538.68 308.536 1542.56 303.613 1547.2 299.163C1551.94 294.619 1557.29 291.021 1563.25 288.371C1569.31 285.625 1575.84 284.252 1582.85 284.252ZM1655.07 287.235V446H1611.76V287.235H1655.07ZM1633.49 225.035C1639.92 225.035 1645.46 226.55 1650.1 229.579C1654.74 232.514 1657.06 238.052 1657.06 246.194C1657.06 254.241 1654.74 259.827 1650.1 262.951C1645.46 265.981 1639.92 267.495 1633.49 267.495C1626.95 267.495 1621.37 265.981 1616.73 262.951C1612.19 259.827 1609.91 254.241 1609.91 246.194C1609.91 238.052 1612.19 232.514 1616.73 229.579C1621.37 226.55 1626.95 225.035 1633.49 225.035Z" fill="url(#paint8_linear_1283_10137)"/>
<path d="M1793.84 446H1750.53V238.384H1869.53V274.454H1793.84V327.991H1864.28V363.919H1793.84V446ZM1957.24 283.968C1978.54 283.968 1994.87 288.607 2006.23 297.885C2017.59 307.163 2023.27 321.269 2023.27 340.204V446H1993.02L1984.65 424.415H1983.51C1978.97 430.095 1974.33 434.734 1969.59 438.332C1964.86 441.929 1959.42 444.58 1953.26 446.284C1947.11 447.988 1939.63 448.84 1930.82 448.84C1921.45 448.84 1913.03 447.041 1905.55 443.444C1898.16 439.846 1892.34 434.355 1888.08 426.971C1883.82 419.492 1881.69 410.025 1881.69 398.569C1881.69 381.717 1887.61 369.315 1899.44 361.363C1911.27 353.316 1929.03 348.866 1952.69 348.014L1980.24 347.162V340.204C1980.24 331.873 1978.07 325.766 1973.71 321.885C1969.36 318.003 1963.3 316.062 1955.53 316.062C1947.87 316.062 1940.34 317.151 1932.95 319.328C1925.57 321.506 1918.19 324.251 1910.8 327.565L1896.46 298.311C1904.88 293.862 1914.3 290.359 1924.72 287.803C1935.23 285.246 1946.07 283.968 1957.24 283.968ZM1980.24 372.44L1963.49 373.008C1949.47 373.386 1939.72 375.895 1934.23 380.534C1928.84 385.173 1926.14 391.279 1926.14 398.853C1926.14 405.48 1928.08 410.214 1931.96 413.054C1935.84 415.8 1940.91 417.172 1947.16 417.172C1956.43 417.172 1964.24 414.427 1970.59 408.936C1977.02 403.445 1980.24 395.634 1980.24 385.504V372.44ZM2142.08 284.252C2144.25 284.252 2146.76 284.394 2149.6 284.678C2152.54 284.868 2154.9 285.152 2156.7 285.53L2153.44 326.145C2152.02 325.671 2149.98 325.34 2147.33 325.151C2144.77 324.867 2142.55 324.725 2140.66 324.725C2135.07 324.725 2129.63 325.435 2124.33 326.855C2119.12 328.275 2114.43 330.594 2110.27 333.813C2106.1 336.937 2102.79 341.103 2100.33 346.31C2097.96 351.422 2096.78 357.718 2096.78 365.197V446H2053.46V287.235H2086.27L2092.66 313.932H2094.79C2097.91 308.536 2101.79 303.613 2106.43 299.163C2111.17 294.619 2116.51 291.021 2122.48 288.371C2128.54 285.625 2135.07 284.252 2142.08 284.252ZM2357.45 284.252C2375.43 284.252 2389.02 288.891 2398.2 298.169C2407.48 307.352 2412.12 322.121 2412.12 342.476V446H2368.66V353.268C2368.66 341.908 2366.72 333.34 2362.84 327.565C2358.96 321.79 2352.95 318.902 2344.81 318.902C2333.35 318.902 2325.21 323.021 2320.38 331.257C2315.55 339.399 2313.14 351.091 2313.14 366.333V446H2269.83V353.268C2269.83 345.695 2268.97 339.352 2267.27 334.239C2265.57 329.127 2262.96 325.293 2259.46 322.737C2255.96 320.18 2251.46 318.902 2245.97 318.902C2237.92 318.902 2231.58 320.938 2226.94 325.009C2222.4 328.985 2219.13 334.902 2217.14 342.76C2215.25 350.523 2214.3 360.038 2214.3 371.304V446H2170.99V287.235H2204.08L2209.9 307.542H2212.31C2215.53 302.051 2219.56 297.601 2224.38 294.193C2229.31 290.785 2234.7 288.276 2240.57 286.666C2246.44 285.057 2252.41 284.252 2258.47 284.252C2270.11 284.252 2279.96 286.146 2288 289.933C2296.15 293.72 2302.39 299.589 2306.75 307.542H2310.58C2315.32 299.4 2321.99 293.483 2330.61 289.791C2339.32 286.098 2348.26 284.252 2357.45 284.252Z" fill="url(#paint9_linear_1283_10137)"/>
<defs>
<linearGradient id="paint0_linear_1283_10137" x1="238.039" y1="141.244" x2="350.94" y2="297.416" gradientUnits="userSpaceOnUse">
<stop stop-color="#0C513E"/>
<stop offset="0.53" stop-color="#0F885B"/>
</linearGradient>
<linearGradient id="paint1_linear_1283_10137" x1="304.138" y1="73.0997" x2="225.375" y2="28.3133" gradientUnits="userSpaceOnUse">
<stop offset="0.285" stop-color="#0F885B"/>
<stop offset="1" stop-color="#0D6549"/>
</linearGradient>
<linearGradient id="paint2_linear_1283_10137" x1="282.342" y1="139.028" x2="237.403" y2="72.5004" gradientUnits="userSpaceOnUse">
<stop offset="0.46" stop-color="#0F885B"/>
<stop offset="1" stop-color="#0C523F"/>
</linearGradient>
<radialGradient id="paint3_radial_1283_10137" cx="0" cy="0" r="1" gradientUnits="userSpaceOnUse" gradientTransform="translate(430.481 245.256) rotate(95.782) scale(219.582 133.853)">
<stop stop-color="#2AC700"/>
<stop offset="1" stop-color="#146100"/>
</radialGradient>
<linearGradient id="paint4_linear_1283_10137" x1="102.135" y1="580.693" x2="285.03" y2="403.41" gradientUnits="userSpaceOnUse">
<stop stop-color="#0C513E"/>
<stop offset="0.73" stop-color="#0F885B"/>
</linearGradient>
<radialGradient id="paint5_radial_1283_10137" cx="0" cy="0" r="1" gradientUnits="userSpaceOnUse" gradientTransform="translate(462.291 369.258) rotate(73.2492) scale(182.278 309.377)">
<stop offset="0.605" stop-color="#2AC700"/>
<stop offset="1" stop-color="#0C513E"/>
</radialGradient>
<linearGradient id="paint6_linear_1283_10137" x1="323.7" y1="575.531" x2="355.616" y2="496.254" gradientUnits="userSpaceOnUse">
<stop stop-color="#0C513E"/>
<stop offset="1" stop-color="#0F885C"/>
</linearGradient>
<radialGradient id="paint7_radial_1283_10137" cx="0" cy="0" r="1" gradientUnits="userSpaceOnUse" gradientTransform="translate(545.742 436.259) rotate(28.3629) scale(151.383 1175.73)">
<stop stop-color="#2AC700"/>
<stop offset="1" stop-color="#146100"/>
</radialGradient>
<linearGradient id="paint8_linear_1283_10137" x1="1021.68" y1="361.618" x2="2287.83" y2="379.612" gradientUnits="userSpaceOnUse">
<stop stop-color="#0C513E"/>
<stop offset="0.52" stop-color="#2AC700"/>
</linearGradient>
<linearGradient id="paint9_linear_1283_10137" x1="1021.68" y1="361.618" x2="2287.83" y2="379.612" gradientUnits="userSpaceOnUse">
<stop offset="0.06" stop-color="#063A2C"/>
<stop offset="0.88" stop-color="#11A078"/>
</linearGradient>
</defs>
</svg>
