<svg width="672" height="648" viewBox="0 0 672 648" fill="none" xmlns="http://www.w3.org/2000/svg">
<g clip-path="url(#clip0_1354_10312)">
<path d="M419.902 404.5C496.702 545.3 387.902 617.833 323.902 636.5C341.102 612.1 322.402 586.667 310.902 577C392.502 539.4 384.569 473.333 370.402 445L419.902 404.5Z" fill="#0C513E"/>
<path d="M362.401 179C362.401 243.617 311.362 296 248.401 296C185.441 296 134.401 243.617 134.401 179C134.401 114.383 185.441 62 248.401 62C311.362 62 362.401 114.383 362.401 179ZM172.422 179C172.422 222.066 206.439 256.978 248.401 256.978C290.363 256.978 324.38 222.066 324.38 179C324.38 135.934 290.363 101.022 248.401 101.022C206.439 101.022 172.422 135.934 172.422 179Z" fill="url(#paint0_linear_1354_10312)"/>
<path d="M344.734 76.8908C240.657 69.5587 149.814 110.083 117.403 131.261C131.956 29.434 200.223 5.18636 232.537 5.79094C296.79 5.05342 334.107 52.8835 344.734 76.8908Z" fill="url(#paint1_linear_1354_10312)"/>
<path d="M469.901 87.0008C501.568 88.6674 539.101 95.5006 435.901 109.501C373.961 115.487 256.247 131.718 167.401 157.131C135.042 166.386 106.512 176.86 85.9009 188.501C43.2342 207.501 -30.8991 237.101 13.9009 203.501C48.5193 165.594 87.6535 137.659 128.401 117.462C200.909 81.5241 278.525 70.0916 344.901 70.5954C395.524 70.9797 439.608 78.3067 469.901 87.0008Z" fill="url(#paint2_linear_1354_10312)"/>
<path d="M13.9009 203.501C-30.8991 237.101 43.2342 207.501 85.9009 188.501C106.512 176.86 135.042 166.386 167.401 157.131C256.247 131.718 373.961 115.487 435.901 109.501C539.101 95.5006 501.568 88.6674 469.901 87.0008M13.9009 203.501C48.5193 165.594 87.6535 137.659 128.401 117.462C200.909 81.5241 278.525 70.0916 344.901 70.5954C395.524 70.9797 439.608 78.3067 469.901 87.0008M13.9009 203.501C43.3594 184.574 97.3362 157.295 167.401 133.858C250.349 106.111 355.844 83.7482 469.901 87.0008" stroke="#0C523F"/>
<path d="M417.901 209.5C428.901 237 427.901 308.5 427.901 313.5C489.101 253.5 448.068 173.833 419.901 141.5C341.901 232.3 381.068 294 410.401 313.5C404.401 281.9 412.901 231 417.901 209.5Z" fill="url(#paint3_radial_1354_10312)"/>
<path d="M333.901 320C278.701 383.6 235.234 499.833 220.401 550C203.201 550 182.9 527 174.4 514.5L140.4 418.5C86.0001 527.3 176.4 577.833 228.4 589.5H279.4C317 611.5 295.067 633 279.4 641C263 650.6 225.234 648.667 208.401 646.5C227.901 649.5 49.4007 632 52.4007 479.5C54.8007 357.5 144.067 316 188.401 310.5L246.901 376.5L302.901 310.5L333.901 320Z" fill="url(#paint4_linear_1354_10312)"/>
<path d="M293.902 552H256.402C283.402 443.499 317.902 409.5 321.402 403C324.704 396.868 363.402 356 401.402 339C431.802 325.4 467.402 300.333 481.402 289.5C483.402 207.1 571.569 172.5 615.402 165.5C615.402 295.5 539.736 320.333 501.902 316.5C514.302 312.5 550.069 256.167 566.402 228.5C499.602 306.9 468.902 331.167 461.902 333.5C488.402 330.5 571.402 336.5 575.902 344C579.502 350 603.736 353.166 615.402 354C601.402 339.6 586.902 336.333 581.402 336.5C625.802 325.7 660.236 364.333 671.902 385C587.402 421 584.902 373 569.402 365.5C557.002 359.5 537.569 355.333 529.402 354C458.602 349.6 407.569 372.166 390.902 384C327.702 434.4 299.902 517 293.902 552Z" fill="url(#paint5_radial_1354_10312)"/>
<path d="M318.402 549.811C320.905 538.147 330.749 504.596 350.108 463.702C346.594 490.781 335.334 545.913 318.402 549.811Z" fill="url(#paint6_linear_1354_10312)"/>
<path d="M614.902 461.869C510.902 494.269 459.236 427.369 446.402 389.869C461.202 405.469 526.902 427.035 557.902 435.869C539.502 415.069 489.569 391.202 466.902 381.869C549.302 361.469 599.902 426.702 614.902 461.869Z" fill="url(#paint7_radial_1354_10312)"/>
</g>
<defs>
<linearGradient id="paint0_linear_1354_10312" x1="230.901" y1="137" x2="340.401" y2="289" gradientUnits="userSpaceOnUse">
<stop stop-color="#0C513E"/>
<stop offset="0.53" stop-color="#0F885B"/>
</linearGradient>
<linearGradient id="paint1_linear_1354_10312" x1="295.402" y1="71" x2="218.902" y2="27.5" gradientUnits="userSpaceOnUse">
<stop offset="0.285" stop-color="#0F885B"/>
<stop offset="1" stop-color="#0D6549"/>
</linearGradient>
<linearGradient id="paint2_linear_1354_10312" x1="273.901" y1="135.5" x2="230.401" y2="71" gradientUnits="userSpaceOnUse">
<stop offset="0.46" stop-color="#0F885B"/>
<stop offset="1" stop-color="#0C523F"/>
</linearGradient>
<radialGradient id="paint3_radial_1354_10312" cx="0" cy="0" r="1" gradientUnits="userSpaceOnUse" gradientTransform="translate(417.401 238.5) rotate(95.7504) scale(214.58 130.1)">
<stop stop-color="#2AC700"/>
<stop offset="1" stop-color="#146100"/>
</radialGradient>
<linearGradient id="paint4_linear_1354_10312" x1="99.9004" y1="564.5" x2="277.4" y2="393" gradientUnits="userSpaceOnUse">
<stop stop-color="#0C513E"/>
<stop offset="0.73" stop-color="#0F885B"/>
</linearGradient>
<radialGradient id="paint5_radial_1354_10312" cx="0" cy="0" r="1" gradientUnits="userSpaceOnUse" gradientTransform="translate(448.902 359) rotate(73.2543) scale(177.006 300.349)">
<stop offset="0.605" stop-color="#2AC700"/>
<stop offset="1" stop-color="#0C513E"/>
</radialGradient>
<linearGradient id="paint6_linear_1354_10312" x1="314.402" y1="559" x2="345.402" y2="482" gradientUnits="userSpaceOnUse">
<stop stop-color="#0C513E"/>
<stop offset="1" stop-color="#0F885C"/>
</linearGradient>
<radialGradient id="paint7_radial_1354_10312" cx="0" cy="0" r="1" gradientUnits="userSpaceOnUse" gradientTransform="translate(530.402 424) rotate(28.4858) scale(146.769 1143.09)">
<stop stop-color="#2AC700"/>
<stop offset="1" stop-color="#146100"/>
</radialGradient>
<clipPath id="clip0_1354_10312">
<rect width="672" height="648" fill="white"/>
</clipPath>
</defs>
</svg>
